<?xml version="1.0" encoding="UTF-8"?>
<svg id="Layer_1" xmlns="http://www.w3.org/2000/svg" version="1.1" viewBox="0 0 177.3 20">
  <!-- Generator: Adobe Illustrator 30.2.1, SVG Export Plug-In . SVG Version: 2.1.1 Build 1)  -->
  <defs>
    <style>
      .st0 {
        fill: #e8e8e8;
      }
    </style>
  </defs>
  <path class="st0" d="M80.9,12.1c0,2.1-1.9,3.8-4,3.7-2,0-3.6-1.7-3.7-3.7V2.2h-3.4v9.9c.3,4,3.7,7,7.7,6.7,3.6-.2,6.4-3.1,6.7-6.7V2.2h-3.3v9.9Z"/>
  <path class="st0" d="M9.1,5.4c1.4,0,2.7.5,3.7,1.4l1.9-2.7c-1.6-1.3-3.6-2-5.7-2C4.4,2.1.5,5.7.3,10.4c-.2,4.7,3.5,8.6,8.2,8.8h.6c2.1,0,4.1-.7,5.7-2l-1.9-2.7c-1,.9-2.3,1.4-3.7,1.4-2.9,0-5.3-2.2-5.4-5,0-2.9,2.2-5.3,5-5.4h.3"/>
  <path class="st0" d="M45.4,13.6l-8.1-11.3h-3.3v16.9h3.3V7.8l8.1,11.4h3.3V2.2h-3.3v11.3h0Z"/>
  <path class="st0" d="M52.5,2.2v3.2h5.2v13.7h3.3V5.4h5.2v-3.2h-13.6Z"/>
  <path class="st0" d="M141.2,2.2v3.2h1.8v13.7h3.3V2.2h-5.2Z"/>
  <path class="st0" d="M19.1,2.2v16.9h11.7v-3.3h-8.3v-3.6h6.7v-3.2h-6.7v-3.6h8.3v-3.2h-11.7Z"/>
  <path class="st0" d="M95.6,10.3h-4.2v-4.9h4.2c1.3-.1,2.5.9,2.6,2.2.1,1.3-.9,2.5-2.2,2.6,0,0-.2,0-.2,0h-.2M101.4,7.9c0-3.2-2.7-5.7-5.9-5.7,0,0,0,0,0,0h-7.5v16.9h3.4v-5.6h2.1l3.9,5.6h4l-4.2-5.8c2.4-.7,4.1-2.9,4.2-5.4"/>
  <path class="st0" d="M116,2.2l-4.9,6.8-4.9-6.8h-4l7.2,10v6.9h3.4v-6.9l7.1-10h-4Z"/>
  <path class="st0" d="M136.9,10.7h0c1.6-2.6.9-5.9-1.5-7.5-2.5-1.6-5.8-.9-7.4,1.5-.6.9-.9,1.8-.9,2.9v.2h3.2v-.2c0-1.2.9-2.1,2.1-2.1,1.1,0,2.1.8,2.1,2,0,0,0,0,0,0v.2c-.1.6-.3,1.1-.7,1.6l-6.8,9.9h11.1v-3.3h-4.9l3.6-5.2h0Z"/>
  <path class="st0" d="M148.6,17.7h.3c0,0,.2,0,.3,0,0,0,0-.1,0-.2,0,0,0,0,0-.1,0,0,0,0-.1,0,0,0-.2,0-.2,0h-.3v.5h0ZM148.3,18.5v-1.5h.5c.1,0,.3,0,.4,0,0,0,.1,0,.2.1,0,0,0,.1,0,.2,0,.1,0,.2-.1.3,0,0-.2.1-.3.1,0,0,0,0,.1,0,0,0,.2.2.2.3l.2.3h-.3v-.2c-.2-.1-.3-.2-.4-.3,0,0-.1,0-.2,0h-.1v.6h-.2ZM148.9,16.6c-.2,0-.4,0-.6.2-.2,0-.3.2-.4.4-.1.2-.2.4-.2.6,0,.2,0,.4.2.6,0,.2.2.3.4.4.4.2.8.2,1.2,0,.2,0,.3-.2.4-.4.1-.2.2-.4.2-.6,0-.2,0-.4-.2-.6-.1-.2-.3-.3-.4-.4-.2-.1-.4-.2-.6-.2M148.9,16.4c.2,0,.5,0,.7.2.2.1.4.3.5.5.3.4.3,1,0,1.4-.1.2-.3.4-.5.5-.4.2-1,.2-1.4,0-.2-.1-.4-.3-.5-.5-.3-.4-.3-1,0-1.4.1-.2.3-.4.5-.5.2-.1.4-.2.7-.2"/>
</svg>